<?xml version="1.0" encoding="UTF-8"?>
<svg xmlns="http://www.w3.org/2000/svg" width="1600" height="800" viewBox="0 0 1600 800" role="img" aria-label="EarnSigma logo">
  <defs>
    <linearGradient id="gradIcon" x1="0" y1="1" x2="1" y2="0">
      <stop offset="0%" stop-color="#1B4DFF"/>
      <stop offset="55%" stop-color="#25A6FF"/>
      <stop offset="100%" stop-color="#34D399"/>
    </linearGradient>

    <linearGradient id="gradEarn" x1="0" y1="0" x2="1" y2="0">
      <stop offset="0%" stop-color="#2AA8FF"/>
      <stop offset="100%" stop-color="#1B4DFF"/>
    </linearGradient>

    <filter id="softGlow" x="-20%" y="-20%" width="140%" height="140%">
      <feGaussianBlur stdDeviation="6" result="blur"/>
      <feColorMatrix in="blur" type="matrix"
        values="1 0 0 0 0
                0 1 0 0 0
                0 0 1 0 0
                0 0 0 .35 0" result="glow"/>
      <feMerge>
        <feMergeNode in="glow"/>
        <feMergeNode in="SourceGraphic"/>
      </feMerge>
    </filter>
  </defs>

  <!-- Icon (Σ + upward arrow + orbit swoosh) -->
  <g transform="translate(250 120)" filter="url(#softGlow)">
    <!-- Sigma block -->
    <path d="
      M 210 40
      L 520 40
      L 520 120
      L 330 120
      L 455 265
      Q 475 288 455 312
      L 330 455
      L 520 455
      L 520 535
      L 210 535
      Q 170 535 188 505
      L 330 312
      L 188 120
      Q 170 90 210 90
      L 210 40 Z"
      fill="url(#gradIcon)"/>

    <!-- Inner cut to stylize Sigma -->
    <path d="
      M 300 120
      L 465 120
      L 365 240
      L 465 240
      L 465 315
      L 365 315
      L 465 455
      L 300 455
      L 220 355
      Q 205 335 220 315
      L 290 315
      L 250 265
      Q 235 245 250 225
      L 290 225
      L 220 120 Z"
      fill="#061526" opacity="0.95"/>

    <!-- Orbit swoosh -->
    <path d="
      M 135 450
      C 160 585, 360 650, 535 575
      C 660 520, 715 395, 690 265
      C 675 185, 625 120, 560 90"
      fill="none" stroke="url(#gradIcon)" stroke-width="28" stroke-linecap="round" opacity="0.95"/>

    <!-- Second swoosh (thin) -->
    <path d="
      M 175 470
      C 205 585, 390 625, 520 565
      C 625 515, 675 410, 655 300"
      fill="none" stroke="url(#gradIcon)" stroke-width="12" stroke-linecap="round" opacity="0.85"/>

    <!-- Arrow -->
    <path d="
      M 430 365
      L 760 170
      Q 785 155 795 182
      L 825 270
      Q 835 300 805 310
      L 720 340
      Q 695 350 690 325
      L 680 280
      L 470 410
      Q 450 423 438 405
      Q 424 385 430 365 Z"
      fill="url(#gradIcon)"/>

    <!-- Arrow tip -->
    <path d="
      M 792 150
      L 910 110
      Q 940 100 930 130
      L 895 245
      Q 885 275 860 252
      L 800 195
      Q 780 176 792 150 Z"
      fill="url(#gradIcon)"/>

    <!-- Spark dots -->
    <circle cx="935" cy="120" r="10" fill="#34D399" opacity="0.95"/>
    <circle cx="970" cy="150" r="6" fill="#34D399" opacity="0.9"/>
    <circle cx="920" cy="165" r="5" fill="#34D399" opacity="0.85"/>
  </g>

  <!-- Wordmark -->
  <g transform="translate(300 690)">
    <text x="0" y="0"
      font-family="Inter, ui-sans-serif, system-ui, -apple-system, Segoe UI, Roboto, Helvetica, Arial"
      font-size="150" font-weight="800" letter-spacing="-2">
      <tspan fill="url(#gradEarn)">Earn</tspan><tspan fill="#FFFFFF">Sigma</tspan>
    </text>
  </g>
</svg>
