<?xml version="1.0" encoding="UTF-8"?>
<svg xmlns="http://www.w3.org/2000/svg" viewBox="0 0 512 512" role="img" aria-label="EarnSigma mark">
  <defs>
    <linearGradient id="markGradient" x1="80" y1="452" x2="436" y2="60" gradientUnits="userSpaceOnUse">
      <stop offset="0" stop-color="#1B4DFF"/>
      <stop offset="0.55" stop-color="#25A6FF"/>
      <stop offset="1" stop-color="#34D399"/>
    </linearGradient>
  </defs>

  <path d="M142 96h230v62H245l93 96c16 17 16 43 0 60l-93 96h127v62H142c-34 0-53-39-32-67l122-121-122-122c-21-28-2-66 32-66Z" fill="url(#markGradient)"/>
  <path d="M214 158h133l-72 76h72v54h-72l72 76H214l-66-70c-14-15-14-38 0-53l66-71Z" fill="#061526" opacity="0.9"/>

  <path d="m264 328 133-79c13-8 31-2 36 13l12 35c5 14-2 30-16 35l-43 15c-13 5-28-2-32-16l-4-14-61 37c-13 8-29 3-35-11l-1-3c-6-13-1-29 11-36Z" fill="url(#markGradient)"/>
  <path d="m394 241 52-18c12-4 23 7 19 19l-16 53c-4 13-20 17-30 8l-27-25c-8-8-6-30 2-37Z" fill="url(#markGradient)"/>

  <path d="M102 318c29 86 133 127 218 103 62-18 109-68 120-130" fill="none" stroke="url(#markGradient)" stroke-width="22" stroke-linecap="round" opacity="0.9"/>
  <path d="M126 345c32 65 123 93 190 72 44-13 79-45 92-86" fill="none" stroke="url(#markGradient)" stroke-width="10" stroke-linecap="round" opacity="0.7"/>
</svg>
